<svg width="32" height="32" viewBox="0 0 32 32" fill="none" xmlns="http://www.w3.org/2000/svg">
<g clip-path="url(#clip0_45_488)">
<path d="M3.2 6.4H28.8C30.5673 6.4 32 4.96725 32 3.2C32 1.43275 30.5673 0 28.8 0H3.2C1.43275 0 0 1.43275 0 3.2C0 4.96725 1.43275 6.4 3.2 6.4Z" fill="white"/>
<path d="M28.8 12.8H3.2C1.43275 12.8 0 14.2327 0 16C0 17.7673 1.43275 19.2 3.2 19.2H28.8C30.5673 19.2 32 17.7673 32 16C32 14.2327 30.5673 12.8 28.8 12.8Z" fill="white"/>
<path d="M28.8 25.6H3.2C1.43275 25.6 0 27.0328 0 28.8C0 30.5673 1.43275 32 3.2 32H28.8C30.5673 32 32 30.5673 32 28.8C32 27.0328 30.5673 25.6 28.8 25.6Z" fill="white"/>
</g>
<defs>
<clipPath id="clip0_45_488">
<rect width="32" height="32" fill="white"/>
</clipPath>
</defs>
</svg>
